<svg id="svg-bubble" fill="#000000" version="1.1" xmlns="http://www.w3.org/2000/svg" xmlns:xlink="http://www.w3.org/1999/xlink" 
	 viewBox="0 0 512 512" xml:space="preserve">
<g>
	<g>
		<path d="M256,50.089c-141.161,0-256,86.134-256,192c0,51.25,26.259,99.071,74.08,135.205
			c-3.411,17.929-13.982,42.866-43.455,68.143c-2.786,2.375-3.875,6.188-2.777,9.679c1.098,3.491,4.17,5.991,7.812,6.357
			c0.661,0.062,4.732,0.438,11.42,0.438c22.375,0,74.036-4.197,125.348-38.259c26.821,6.928,54.911,10.438,83.571,10.438
			c141.161,0,256-86.134,256-192S397.161,50.089,256,50.089z M256,415.804c-28.491,0-56.366-3.661-82.848-10.875
			c-2.58-0.696-5.375-0.232-7.598,1.304C125.357,434,83.777,441.366,59.277" fill="currentColor" />
			<path d="M256,50.089c-141.161,0-256,86.134-256,192c0,51.25,26.259,99.071,74.08,135.205
			c-3.411,17.929-13.982,42.866-43.455,68.143c-2.786,2.375-3.875,6.188-2.777,9.679c1.098,3.491,4.17,5.991,7.812,6.357
			c0.661,0.062,4.732,0.438,11.42,0.438c22.375,0,74.036-4.197,125.348-38.259c26.821,6.928,54.911,10.438,83.571,10.438
			c141.161,0,256-86.134,256-192S397.161,50.089,256,50.089z M256,415.804c-28.491,0-56.366-3.661-82.848-10.875
			c-2.58-0.696-5.375-0.232-7.598,1.304C125.357,434,83.777,441.366,59.277,443.089c23.634-26.045,31.536-51.063,33.768-68.714
			c0.42-3.321-1.009-6.607-3.732-8.563c-45.804-32.973-71.027-76.911-71.027-123.723C18.286,146.303,124.92,68.375,256,68.375
			c131.08,0,237.714,77.928,237.714,173.714C493.714,337.875,387.08,415.804,256,415.804z"/>
	</g>
</g>
</svg>